<svg width="18" height="18" viewBox="0 0 18 18" fill="none" xmlns="http://www.w3.org/2000/svg">
<path d="M4.71429 1.0375C5.66679 1.73166 6.40845 2.67916 7.04179 3.58583L7.41012 4.1225L7.75762 4.635C7.93144 4.88894 8.00576 5.19795 7.96642 5.50316C7.92707 5.80837 7.77682 6.08844 7.54429 6.29L5.91845 7.4975C5.8399 7.55422 5.78461 7.63752 5.76285 7.73193C5.74109 7.82634 5.75433 7.92545 5.80012 8.01083C6.16845 8.68 6.82345 9.67666 7.57345 10.4267C8.32429 11.1767 9.36762 11.875 10.0835 12.285C10.1732 12.3354 10.2788 12.3495 10.3787 12.3244C10.4785 12.2992 10.5649 12.2368 10.6201 12.15L11.6785 10.5392C11.873 10.2807 12.1601 10.1076 12.4794 10.056C12.7988 10.0044 13.1258 10.0784 13.3918 10.2625L13.9443 10.645C14.9768 11.3617 16.086 12.1758 16.9343 13.2617C17.0688 13.4348 17.1544 13.6409 17.1821 13.8585C17.2098 14.076 17.1786 14.297 17.0918 14.4983C16.3943 16.1258 14.6293 17.5117 12.7935 17.4442L12.5435 17.43L12.3493 17.4133L12.1343 17.3883L11.9001 17.3567L11.646 17.315C11.6015 17.307 11.557 17.2986 11.5126 17.29L11.2326 17.23C11.1837 17.2192 11.1348 17.2081 11.086 17.1967L10.781 17.1183L10.4601 17.0267L10.1251 16.9183C8.58679 16.3967 6.63429 15.3717 4.63095 13.3683C2.62845 11.3658 1.60345 9.41333 1.08179 7.875L0.973453 7.54L0.881786 7.21916L0.803453 6.91416L0.738453 6.62583C0.719678 6.53553 0.702177 6.44496 0.685953 6.35416L0.644286 6.1L0.610953 5.86583L0.586786 5.65083L0.570119 5.45666L0.556786 5.20666C0.489286 3.37666 1.89012 1.59916 3.51012 0.904997C3.7051 0.820802 3.91862 0.788747 4.12973 0.811976C4.34084 0.835205 4.54228 0.912921 4.71429 1.0375ZM11.4935 4.03333L11.5901 4.04416C12.1967 4.15116 12.7539 4.44745 13.1817 4.89056C13.6095 5.33367 13.8861 5.90086 13.9718 6.51083C14.0023 6.72181 13.9509 6.93648 13.8279 7.11067C13.705 7.28485 13.5201 7.40531 13.311 7.44727C13.102 7.48922 12.8849 7.44947 12.7043 7.3362C12.5237 7.22293 12.3934 7.04476 12.3401 6.83833L12.321 6.7425C12.2874 6.50341 12.1854 6.27915 12.0271 6.09682C11.8689 5.91448 11.6613 5.78186 11.4293 5.715L11.3001 5.68583C11.0909 5.64874 10.9037 5.53311 10.7769 5.36258C10.6501 5.19206 10.5932 4.97952 10.6179 4.76845C10.6426 4.55738 10.747 4.36371 10.9097 4.22706C11.0725 4.09042 11.2813 4.02111 11.4935 4.03333ZM11.5001 1.5C12.8262 1.5 14.098 2.02678 15.0357 2.96446C15.9733 3.90214 16.5001 5.17391 16.5001 6.5C16.4999 6.7124 16.4186 6.91669 16.2727 7.07114C16.1269 7.22558 15.9277 7.31853 15.7156 7.33097C15.5036 7.34342 15.2948 7.27443 15.1319 7.13811C14.969 7.00178 14.8644 6.80841 14.8393 6.5975L14.8335 6.5C14.8338 5.65368 14.512 4.83896 13.9334 4.22127C13.3549 3.60357 12.563 3.2292 11.7185 3.17416L11.5001 3.16666C11.2791 3.16666 11.0671 3.07887 10.9109 2.92259C10.7546 2.7663 10.6668 2.55434 10.6668 2.33333C10.6668 2.11232 10.7546 1.90035 10.9109 1.74407C11.0671 1.58779 11.2791 1.5 11.5001 1.5Z" fill="white"/>
</svg>
