<svg width="18" height="18" viewBox="0 0 18 18" fill="none" xmlns="http://www.w3.org/2000/svg">
<path d="M4.71416 1.0375C5.66666 1.73166 6.40833 2.67916 7.04166 3.58583L7.41 4.1225L7.7575 4.635C7.93132 4.88894 8.00564 5.19795 7.96629 5.50316C7.92695 5.80837 7.7767 6.08844 7.54416 6.29L5.91833 7.4975C5.83978 7.55422 5.78449 7.63752 5.76273 7.73193C5.74096 7.82634 5.75421 7.92545 5.8 8.01083C6.16833 8.68 6.82333 9.67666 7.57333 10.4267C8.32416 11.1767 9.3675 11.875 10.0833 12.285C10.1731 12.3354 10.2787 12.3495 10.3785 12.3244C10.4784 12.2992 10.5648 12.2368 10.62 12.15L11.6783 10.5392C11.8729 10.2807 12.1599 10.1076 12.4793 10.056C12.7987 10.0044 13.1256 10.0784 13.3917 10.2625L13.9442 10.645C14.9767 11.3617 16.0858 12.1758 16.9342 13.2617C17.0687 13.4348 17.1543 13.6409 17.182 13.8585C17.2097 14.076 17.1785 14.297 17.0917 14.4983C16.3942 16.1258 14.6292 17.5117 12.7933 17.4442L12.5433 17.43L12.3492 17.4133L12.1342 17.3883L11.9 17.3567L11.6458 17.315C11.6013 17.307 11.5569 17.2986 11.5125 17.29L11.2325 17.23C11.1835 17.2192 11.1346 17.2081 11.0858 17.1967L10.7808 17.1183L10.46 17.0267L10.125 16.9183C8.58666 16.3967 6.63416 15.3717 4.63083 13.3683C2.62833 11.3658 1.60333 9.41333 1.08166 7.875L0.973331 7.54L0.881664 7.21916L0.803331 6.91416L0.738331 6.62583C0.719556 6.53552 0.702055 6.44496 0.685831 6.35416L0.644164 6.1L0.610831 5.86583L0.586664 5.65083L0.569997 5.45666L0.556664 5.20666C0.489164 3.37666 1.89 1.59916 3.51 0.904997C3.70498 0.820802 3.9185 0.788747 4.12961 0.811976C4.34071 0.835205 4.54216 0.912921 4.71416 1.0375ZM11.4933 4.03333L11.59 4.04416C12.1966 4.15116 12.7537 4.44745 13.1816 4.89056C13.6094 5.33367 13.886 5.90086 13.9717 6.51083C14.0022 6.72181 13.9507 6.93648 13.8278 7.11067C13.7049 7.28485 13.5199 7.40531 13.3109 7.44727C13.1019 7.48922 12.8848 7.44947 12.7042 7.3362C12.5236 7.22293 12.3932 7.04476 12.34 6.83833L12.3208 6.7425C12.2873 6.50341 12.1853 6.27915 12.027 6.09682C11.8688 5.91448 11.6611 5.78186 11.4292 5.715L11.3 5.68583C11.0907 5.64874 10.9036 5.53311 10.7767 5.36258C10.6499 5.19206 10.5931 4.97952 10.6177 4.76845C10.6424 4.55738 10.7468 4.36371 10.9096 4.22706C11.0724 4.09042 11.2812 4.02112 11.4933 4.03333ZM11.5 1.5C12.8261 1.5 14.0978 2.02678 15.0355 2.96446C15.9732 3.90214 16.5 5.17391 16.5 6.5C16.4998 6.7124 16.4184 6.91669 16.2726 7.07114C16.1268 7.22558 15.9275 7.31853 15.7155 7.33097C15.5035 7.34342 15.2947 7.27443 15.1318 7.13811C14.9689 7.00178 14.8643 6.80841 14.8392 6.5975L14.8333 6.5C14.8336 5.65368 14.5119 4.83896 13.9333 4.22127C13.3548 3.60357 12.5629 3.2292 11.7183 3.17416L11.5 3.16666C11.279 3.16666 11.067 3.07887 10.9107 2.92259C10.7545 2.7663 10.6667 2.55434 10.6667 2.33333C10.6667 2.11232 10.7545 1.90035 10.9107 1.74407C11.067 1.58779 11.279 1.5 11.5 1.5Z" fill="#0E253C"/>
</svg>
