<svg width="18" height="14" viewBox="0 0 18 14" fill="none" xmlns="http://www.w3.org/2000/svg">
<path d="M0.723293 1.56833L8.11913 8.96499C8.33792 9.18394 8.63016 9.31392 8.93928 9.32978C9.2484 9.34563 9.55241 9.24624 9.79246 9.05083L9.88746 8.96499L17.2783 1.57333C17.3025 1.66499 17.3183 1.75833 17.3266 1.85416L17.3333 1.99999V12C17.3334 12.4205 17.1746 12.8255 16.8887 13.1338C16.6028 13.4421 16.2109 13.631 15.7916 13.6625L15.6666 13.6667H2.33329C1.91281 13.6668 1.50782 13.508 1.1995 13.2221C0.891185 12.9362 0.702329 12.5443 0.670793 12.125L0.666626 12V1.99999C0.666626 1.89999 0.674959 1.80333 0.691626 1.70833L0.723293 1.56833ZM15.6666 0.333328C15.7675 0.333328 15.8666 0.341662 15.9625 0.359162L16.1041 0.391662L9.00413 7.49166L1.90163 0.389995C1.99329 0.364995 2.08829 0.348328 2.18496 0.339995L2.33329 0.333328H15.6666Z" fill="#0E253C"/>
</svg>
