<svg width="18" height="14" viewBox="0 0 18 14" fill="none" xmlns="http://www.w3.org/2000/svg">
<path d="M0.723415 1.56833L8.11925 8.96499C8.33804 9.18394 8.63028 9.31392 8.93941 9.32978C9.24853 9.34563 9.55254 9.24624 9.79258 9.05083L9.88758 8.96499L17.2784 1.57333C17.3026 1.66499 17.3184 1.75833 17.3267 1.85416L17.3334 1.99999V12C17.3335 12.4205 17.1747 12.8255 16.8888 13.1338C16.6029 13.4421 16.211 13.631 15.7917 13.6625L15.6667 13.6667H2.33341C1.91293 13.6668 1.50794 13.508 1.19962 13.2221C0.891307 12.9362 0.702451 12.5443 0.670915 12.125L0.666748 12V1.99999C0.666748 1.89999 0.675081 1.80333 0.691748 1.70833L0.723415 1.56833ZM15.6667 0.333328C15.7676 0.333328 15.8667 0.341662 15.9626 0.359162L16.1042 0.391662L9.00425 7.49166L1.90175 0.389995C1.99341 0.364995 2.08841 0.348328 2.18508 0.339995L2.33341 0.333328H15.6667Z" fill="white"/>
</svg>
