<svg width="18" height="18" viewBox="0 0 18 18" fill="none" xmlns="http://www.w3.org/2000/svg">
<path d="M9.00008 0.666672C13.6026 0.666672 17.3334 4.39751 17.3334 9.00001C17.3334 13.6025 13.6026 17.3333 9.00008 17.3333H2.33341C1.89139 17.3333 1.46746 17.1577 1.1549 16.8452C0.842343 16.5326 0.666748 16.1087 0.666748 15.6667V9.00001C0.666748 4.39751 4.39758 0.666672 9.00008 0.666672ZM9.00008 10.6667H6.50008C6.27907 10.6667 6.06711 10.7545 5.91083 10.9108C5.75455 11.067 5.66675 11.279 5.66675 11.5C5.66675 11.721 5.75455 11.933 5.91083 12.0893C6.06711 12.2455 6.27907 12.3333 6.50008 12.3333H9.00008C9.2211 12.3333 9.43306 12.2455 9.58934 12.0893C9.74562 11.933 9.83342 11.721 9.83342 11.5C9.83342 11.279 9.74562 11.067 9.58934 10.9108C9.43306 10.7545 9.2211 10.6667 9.00008 10.6667ZM11.5001 7.33334H6.50008C6.28768 7.33357 6.08339 7.4149 5.92894 7.56071C5.77449 7.70652 5.68155 7.9058 5.6691 8.11783C5.65666 8.32987 5.72564 8.53865 5.86197 8.70153C5.99829 8.86441 6.19167 8.96909 6.40258 8.99417L6.50008 9.00001H11.5001C11.7125 8.99977 11.9168 8.91844 12.0712 8.77263C12.2257 8.62682 12.3186 8.42754 12.3311 8.21551C12.3435 8.00348 12.2745 7.79469 12.1382 7.63181C12.0019 7.46893 11.8085 7.36426 11.5976 7.33917L11.5001 7.33334Z" fill="white"/>
</svg>
