<svg width="18" height="18" viewBox="0 0 18 18" fill="none" xmlns="http://www.w3.org/2000/svg">
<path d="M8.99996 0.666672C13.6025 0.666672 17.3333 4.39751 17.3333 9.00001C17.3333 13.6025 13.6025 17.3333 8.99996 17.3333H2.33329C1.89127 17.3333 1.46734 17.1577 1.15478 16.8452C0.842221 16.5326 0.666626 16.1087 0.666626 15.6667V9.00001C0.666626 4.39751 4.39746 0.666672 8.99996 0.666672ZM8.99996 10.6667H6.49996C6.27895 10.6667 6.06698 10.7545 5.9107 10.9108C5.75442 11.067 5.66663 11.279 5.66663 11.5C5.66663 11.721 5.75442 11.933 5.9107 12.0893C6.06698 12.2455 6.27895 12.3333 6.49996 12.3333H8.99996C9.22097 12.3333 9.43293 12.2455 9.58922 12.0893C9.7455 11.933 9.83329 11.721 9.83329 11.5C9.83329 11.279 9.7455 11.067 9.58922 10.9108C9.43293 10.7545 9.22097 10.6667 8.99996 10.6667ZM11.5 7.33334H6.49996C6.28756 7.33357 6.08327 7.4149 5.92882 7.56071C5.77437 7.70652 5.68143 7.9058 5.66898 8.11783C5.65654 8.32987 5.72552 8.53865 5.86185 8.70153C5.99817 8.86441 6.19155 8.96909 6.40246 8.99417L6.49996 9.00001H11.5C11.7124 8.99977 11.9167 8.91844 12.0711 8.77263C12.2255 8.62682 12.3185 8.42754 12.3309 8.21551C12.3434 8.00348 12.2744 7.79469 12.1381 7.63181C12.0017 7.46893 11.8084 7.36426 11.5975 7.33917L11.5 7.33334Z" fill="#0E253C"/>
</svg>
