<svg width="16" height="16" viewBox="0 0 16 16" fill="none" xmlns="http://www.w3.org/2000/svg">
<path d="M8 1C8.06614 1 8.13029 1.01959 8.18457 1.05566L8.23535 1.09766C8.29779 1.16009 8.33292 1.24472 8.33301 1.33301V7.66699H14.667C14.7332 7.66706 14.7973 7.68648 14.8516 7.72266L14.9023 7.76465C14.9648 7.82715 15 7.91167 15 8C15 8.06614 14.9804 8.13029 14.9443 8.18457L14.9023 8.23535C14.8399 8.29778 14.7553 8.33292 14.667 8.33301H8.33301V14.667C8.33294 14.7332 8.31352 14.7973 8.27734 14.8516L8.23535 14.9023C8.17285 14.9648 8.08833 15 8 15C7.93386 15 7.8697 14.9804 7.81543 14.9443L7.76465 14.9023C7.70221 14.8399 7.66708 14.7553 7.66699 14.667V8.33301H1.33301C1.26683 8.33294 1.2027 8.31352 1.14844 8.27734L1.09766 8.23535C1.03525 8.17285 1 8.08833 1 8L1.00684 7.93457C1.01535 7.89208 1.03167 7.85152 1.05566 7.81543L1.09766 7.76465C1.16009 7.70221 1.24472 7.66708 1.33301 7.66699H7.66699V1.33301C7.66706 1.26683 7.68648 1.2027 7.72266 1.14844L7.76465 1.09766C7.81147 1.0509 7.87064 1.01965 7.93457 1.00684L8 1Z" fill="#010D19" stroke="#513CCE"/>
</svg>
