<svg width="15" height="16" viewBox="0 0 15 16" fill="none" xmlns="http://www.w3.org/2000/svg">
<path d="M2.16699 1H4.16699V3.41699C4.16707 3.82279 4.30765 4.21414 4.5625 4.52539L4.67969 4.6543C5.00785 4.98228 5.45302 5.16699 5.91699 5.16699H9.25C9.71405 5.16699 10.1591 4.98238 10.4873 4.6543C10.8154 4.32618 10.9999 3.881 11 3.41699V1C11.2666 1.00274 11.523 1.0969 11.7275 1.26465L11.8135 1.3418L13.8252 3.35352C14.0439 3.57224 14.1669 3.86938 14.167 4.17871V13.833C14.167 14.1037 14.0723 14.3647 13.9023 14.5723L13.8252 14.6582C13.6064 14.877 13.3094 15 13 15H11.833V9.66699C11.833 9.16432 11.6585 8.67944 11.3428 8.29395L11.1992 8.13477C10.793 7.72851 10.2415 7.50009 9.66699 7.5H5.5C4.99731 7.5 4.51246 7.67447 4.12695 7.99023L3.96777 8.13477C3.56155 8.54108 3.33301 9.09243 3.33301 9.66699V15H2.16699C1.89627 15 1.63533 14.9054 1.42773 14.7354L1.3418 14.6582C1.123 14.4394 1 14.1424 1 13.833V2.16699C1 1.89627 1.09458 1.63533 1.26465 1.42773L1.3418 1.3418C1.53333 1.15026 1.78454 1.0323 2.05176 1.00586L2.16699 1ZM9.16699 10.167V15H6V10.167H9.16699ZM8.33301 1V2.5H6.83301V1H8.33301Z" fill="#22C55E" stroke="#22C55E"/>
</svg>
