<svg width="26" height="26" viewBox="0 0 26 26" fill="none" xmlns="http://www.w3.org/2000/svg">
<path fill-rule="evenodd" clip-rule="evenodd" d="M11.3503 1.45C11.7633 1.03755 12.3159 0.79486 12.899 0.769807C13.4821 0.744754 14.0535 0.939157 14.5003 1.31466L14.6496 1.45116L16.8663 3.66666H20C20.5884 3.66677 21.1551 3.88923 21.5865 4.28947C22.0179 4.68972 22.2822 5.23818 22.3263 5.825L22.3333 6V9.13366L24.55 11.3503C24.9627 11.7634 25.2056 12.3162 25.2307 12.8996C25.2557 13.483 25.0611 14.0546 24.6853 14.5015L24.5488 14.6497L22.3321 16.8663V20C22.3323 20.5887 22.11 21.1557 21.7097 21.5873C21.3094 22.0189 20.7608 22.2833 20.1738 22.3275L20 22.3333H16.8675L14.6508 24.55C14.2378 24.9628 13.6849 25.2057 13.1015 25.2307C12.5181 25.2558 11.9465 25.0612 11.4996 24.6853L11.3515 24.55L9.1348 22.3333H5.99997C5.41129 22.3335 4.8443 22.1112 4.41266 21.7109C3.98101 21.3106 3.71662 20.762 3.67247 20.175L3.66663 20V16.8663L1.44997 14.6497C1.03719 14.2366 0.794296 13.6838 0.76924 13.1004C0.744185 12.517 0.938791 11.9454 1.31463 11.4985L1.44997 11.3503L3.66663 9.13366V6C3.66674 5.41153 3.8892 4.84483 4.28944 4.41343C4.68968 3.98203 5.23815 3.7178 5.82497 3.67366L5.99997 3.66666H9.13363L11.3503 1.45ZM16.5921 9.48016L11.6408 14.4315L9.57813 12.3688C9.35922 12.1501 9.06237 12.0272 8.75289 12.0273C8.4434 12.0275 8.14664 12.1505 7.92788 12.3694C7.70912 12.5883 7.58629 12.8852 7.5864 13.1947C7.58651 13.5041 7.70955 13.8009 7.92847 14.0197L10.7331 16.8243C10.8523 16.9436 10.9938 17.0381 11.1495 17.1027C11.3053 17.1672 11.4722 17.2004 11.6408 17.2004C11.8094 17.2004 11.9763 17.1672 12.132 17.1027C12.2878 17.0381 12.4293 16.9436 12.5485 16.8243L18.2418 11.1298C18.4543 10.9098 18.5719 10.6151 18.5693 10.3092C18.5666 10.0033 18.4439 9.71068 18.2276 9.49437C18.0113 9.27807 17.7187 9.15537 17.4128 9.15271C17.1069 9.15005 16.8122 9.26765 16.5921 9.48016Z" fill="#513CCE"/>
</svg>
