<svg width="24" height="20" viewBox="0 0 24 20" fill="none" xmlns="http://www.w3.org/2000/svg">
<path d="M21.3332 16.4167C21.7826 16.4169 22.2147 16.59 22.54 16.9002C22.8652 17.2103 23.0587 17.6337 23.0803 18.0826C23.1019 18.5315 22.9499 18.9715 22.656 19.3114C22.362 19.6513 21.9485 19.8651 21.5012 19.9085L21.3332 19.9167H2.6665C2.21708 19.9165 1.78498 19.7433 1.45972 19.4332C1.13446 19.1231 0.94099 18.6997 0.919392 18.2508C0.897795 17.8019 1.04973 17.3619 1.34371 17.0219C1.63769 16.682 2.05118 16.4682 2.4985 16.4248L2.6665 16.4167H21.3332ZM21.3332 8.25001C21.7973 8.25001 22.2424 8.43438 22.5706 8.76257C22.8988 9.09076 23.0832 9.53588 23.0832 10C23.0832 10.4641 22.8988 10.9093 22.5706 11.2374C22.2424 11.5656 21.7973 11.75 21.3332 11.75H2.6665C2.20238 11.75 1.75726 11.5656 1.42907 11.2374C1.10088 10.9093 0.916504 10.4641 0.916504 10C0.916504 9.53588 1.10088 9.09076 1.42907 8.76257C1.75726 8.43438 2.20238 8.25001 2.6665 8.25001H21.3332ZM21.3332 0.0833435C21.7973 0.0833435 22.2424 0.267718 22.5706 0.595907C22.8988 0.924095 23.0832 1.36921 23.0832 1.83334C23.0832 2.29747 22.8988 2.74259 22.5706 3.07078C22.2424 3.39897 21.7973 3.58334 21.3332 3.58334H2.6665C2.20238 3.58334 1.75726 3.39897 1.42907 3.07078C1.10088 2.74259 0.916504 2.29747 0.916504 1.83334C0.916504 1.36921 1.10088 0.924095 1.42907 0.595907C1.75726 0.267718 2.20238 0.0833435 2.6665 0.0833435H21.3332Z" fill="#0E253C"/>
</svg>
