<svg width="18" height="18" viewBox="0 0 18 18" fill="none" xmlns="http://www.w3.org/2000/svg">
<path d="M12.8979 11.4415C13.7216 10.3201 14.2082 8.93561 14.2082 7.43749C14.2082 3.69806 11.1768 0.666656 7.43734 0.666656C3.69791 0.666656 0.666504 3.69806 0.666504 7.43749C0.666504 11.1769 3.69791 14.2083 7.43734 14.2083C8.93586 14.2083 10.3207 13.7215 11.4423 12.8974L11.4414 12.8981C11.4721 12.9397 11.5063 12.9796 11.544 13.0173L15.5549 17.0282C15.9617 17.435 16.6213 17.435 17.0281 17.0282C17.4349 16.6214 17.4349 15.9619 17.0281 15.5551L13.0172 11.5442C12.9795 11.5065 12.9396 11.4723 12.8979 11.4415ZM13.1665 7.43749C13.1665 10.6016 10.6015 13.1667 7.43734 13.1667C4.27321 13.1667 1.70817 10.6016 1.70817 7.43749C1.70817 4.27336 4.27321 1.70832 7.43734 1.70832C10.6015 1.70832 13.1665 4.27336 13.1665 7.43749Z" fill="white"/>
</svg>
