<svg width="15" height="9" viewBox="0 0 15 9" fill="none" xmlns="http://www.w3.org/2000/svg">
<path d="M10.786 6.33333H10.5334C10.2682 6.33333 10.0138 6.43868 9.82626 6.62622C9.63872 6.81376 9.53337 7.06811 9.53337 7.33333C9.53337 7.59854 9.63872 7.8529 9.82626 8.04043C10.0138 8.22797 10.2682 8.33333 10.5334 8.33333H13.2C13.4652 8.33333 13.7196 8.22797 13.9071 8.04043C14.0947 7.8529 14.2 7.59854 14.2 7.33333V4.66666C14.2 4.40144 14.0947 4.14709 13.9071 3.95955C13.7196 3.77202 13.4652 3.66666 13.2 3.66666C12.9348 3.66666 12.6805 3.77202 12.4929 3.95955C12.3054 4.14709 12.2 4.40144 12.2 4.66666V4.91933L9.24003 1.95933C9.05253 1.77206 8.79837 1.66687 8.53337 1.66687C8.26837 1.66687 8.0142 1.77206 7.8267 1.95933L5.53337 4.25333L1.9067 0.626661C1.81441 0.531195 1.70403 0.455066 1.582 0.402715C1.45997 0.350365 1.32874 0.322841 1.19596 0.32175C1.06318 0.320659 0.931513 0.346024 0.808641 0.396362C0.685769 0.446701 0.574152 0.521007 0.480304 0.614943C0.386456 0.70888 0.312256 0.820566 0.262033 0.943486C0.21181 1.0664 0.18657 1.1981 0.187786 1.33087C0.189002 1.46365 0.21665 1.59486 0.269115 1.71684C0.321581 1.83882 0.397814 1.94913 0.493367 2.04133L4.8267 6.37466C5.0142 6.56193 5.26837 6.66711 5.53337 6.66711C5.79837 6.66711 6.05253 6.56193 6.24003 6.37466L8.53337 4.07999L10.786 6.33266V6.33333Z" fill="#DC3545"/>
</svg>
