<svg width="14" height="14" viewBox="0 0 14 14" fill="none" xmlns="http://www.w3.org/2000/svg">
<path d="M7.00024 0.833332C10.406 0.833508 13.1663 3.59458 13.1663 7.00032C13.1661 10.4059 10.4058 13.1662 7.00024 13.1663H1.66626C1.44536 13.1663 1.2336 13.0784 1.07739 12.9222C0.921214 12.7659 0.833252 12.5543 0.833252 12.3333V7.00032C0.833252 3.59447 3.59439 0.833332 7.00024 0.833332ZM5.00024 7.83333C4.69082 7.83333 4.39384 7.95634 4.17505 8.17513C3.95626 8.39392 3.83325 8.6909 3.83325 9.00032L3.83911 9.11556C3.86567 9.38246 3.98376 9.63318 4.17505 9.82454C4.39384 10.0433 4.69082 10.1663 5.00024 10.1663H7.00024C7.30955 10.1663 7.60575 10.0433 7.82446 9.82454C8.04318 9.60583 8.16617 9.30963 8.16626 9.00032C8.16626 8.6909 8.04326 8.39392 7.82446 8.17513C7.60576 7.95652 7.30947 7.83342 7.00024 7.83333H5.00024ZM4.99927 5.16634C4.70194 5.16669 4.41567 5.28059 4.19946 5.4847C4.01027 5.66331 3.88743 5.89957 3.8479 6.15462L3.83618 6.26497C3.81876 6.56181 3.91487 6.85433 4.10571 7.08236C4.29649 7.3103 4.56741 7.45634 4.86255 7.49154L4.8772 7.49349L4.89185 7.49446L4.96997 7.49935L4.98462 7.50032H9.00024C9.29753 7.49999 9.58384 7.386 9.80005 7.18196C10.0163 6.97783 10.1469 6.69854 10.1643 6.40169C10.1817 6.10486 10.0846 5.81233 9.8938 5.58431C9.70296 5.35637 9.43217 5.21025 9.13696 5.17513L9.12231 5.17318L9.10767 5.1722L9.02954 5.16732L9.01489 5.16634H4.99927Z" fill="white" stroke="white"/>
</svg>
