<svg width="48" height="26" viewBox="0 0 48 26" fill="none" xmlns="http://www.w3.org/2000/svg">
<rect x="0.333252" width="47" height="26" rx="8" fill="#0E253C" fill-opacity="0.05"/>
<rect x="0.833252" y="0.5" width="46" height="25" rx="7.5" stroke="#0E253C" stroke-opacity="0.1"/>
<g clip-path="url(#clip0_38_22732)">
<path d="M10.868 9.34256C8.40097 9.34256 6.34521 10.3118 6.34521 13.236C6.34521 15.5526 7.72756 17.0114 10.9317 17.0114C14.7031 17.0114 14.9448 14.7108 14.9448 14.7108H13.1174C13.1174 14.7108 12.7256 15.9496 10.8202 15.9496C9.2683 15.9496 8.15212 14.9787 8.15212 13.618H15.1359V12.7641C15.1359 11.4178 14.2131 9.34256 10.868 9.34256ZM10.8043 10.4339C12.2815 10.4339 13.2886 11.272 13.2886 12.5281H8.19254C8.19254 11.1946 9.50704 10.4339 10.8043 10.4339Z" fill="#E53238"/>
<path d="M15.1347 6.51071V15.5427C15.1347 16.0553 15.0952 16.7752 15.0952 16.7752H16.8382C16.8382 16.7752 16.9007 16.2582 16.9007 15.7857C16.9007 15.7857 17.7619 17.0333 20.1034 17.0333C22.5691 17.0333 24.2439 15.448 24.2439 13.1767C24.2439 11.0638 22.7055 9.36442 20.1074 9.36442C17.6744 9.36442 16.9183 10.5811 16.9183 10.5811V6.51071H15.1347ZM19.6575 10.4816C21.3319 10.4816 22.3966 11.6324 22.3966 13.1767C22.3966 14.8328 21.1669 15.9161 19.6694 15.9161C17.8823 15.9161 16.9183 14.624 16.9183 13.1915C16.9183 11.8567 17.7834 10.4816 19.6575 10.4816Z" fill="#0064D2"/>
<path d="M28.575 9.34268C24.8636 9.34268 24.6256 11.2246 24.6256 11.5254H26.4729C26.4729 11.5254 26.5697 10.4266 28.4476 10.4266C29.6679 10.4266 30.6134 10.9439 30.6134 11.9383V12.2922H28.4476C25.5723 12.2922 24.0522 13.0712 24.0522 14.6519C24.0522 16.2075 25.4567 17.054 27.3547 17.054C29.9414 17.054 30.7747 15.7303 30.7747 15.7303C30.7747 16.2568 30.8185 16.7756 30.8185 16.7756H32.4607C32.4607 16.7756 32.397 16.1325 32.397 15.7211V12.165C32.397 9.83338 30.3662 9.34268 28.575 9.34268ZM30.6134 13.3541V13.826C30.6134 14.4416 30.2033 15.9718 27.7887 15.9718C26.4665 15.9718 25.8996 15.3607 25.8996 14.6519C25.8996 13.3624 27.8087 13.3541 30.6134 13.3541Z" fill="#F5AF02"/>
<path d="M31.4026 9.6377H33.4808L36.4634 15.1713L39.4391 9.6377H41.3217L35.9015 19.4892H33.9267L35.4908 16.743L31.4026 9.6377Z" fill="#86B817"/>
</g>
<defs>
<clipPath id="clip0_38_22732">
<rect width="35" height="13" fill="white" transform="translate(6.33325 6.5)"/>
</clipPath>
</defs>
</svg>
